<svg width="80" height="80" viewBox="0 0 80 80" fill="none" xmlns="http://www.w3.org/2000/svg">
<rect width="80" height="80" rx="16" fill="#F1EDFA"/>
<path d="M33 22.1171C35.0227 20.7759 37.4178 20 39.9852 20C42.565 20 44.971 20.7835 47 22.1368M43.2444 27C42.2842 26.4205 41.1714 26.0892 39.9852 26.0892C38.8116 26.0892 37.71 26.4135 36.7568 26.9816" stroke="#8A70D6" stroke-width="3" stroke-linecap="round" stroke-linejoin="round"/>
<path d="M40 34V59" stroke="#8A70D6" stroke-width="3" stroke-linecap="round"/>
<path d="M40 34.4118C40 34.4118 33.7 27.9067 22 30.6946V56.2828C33.7 53.495 40 60 40 60C40 60 46.3 53.495 58 56.2828V30.6946C46.3 27.9067 40 34.4118 40 34.4118Z" stroke="#8A70D6" stroke-width="3" stroke-linecap="round" stroke-linejoin="round"/>
</svg>
