<svg width="80" height="80" viewBox="0 0 80 80" fill="none" xmlns="http://www.w3.org/2000/svg">
<rect width="80" height="80" rx="16" fill="#F79009" fill-opacity="0.12"/>
<path d="M58.84 37.844C59.198 37.686 59.5019 37.4265 59.7139 37.0976C59.9258 36.7687 60.0367 36.3848 60.0326 35.9935C60.0286 35.6022 59.9098 35.2206 59.6911 34.8962C59.4723 34.5717 59.1632 34.3185 58.802 34.168L41.66 26.36C41.1389 26.1223 40.5728 25.9993 40 25.9993C39.4272 25.9993 38.8611 26.1223 38.34 26.36L21.2 34.16C20.8439 34.3159 20.541 34.5723 20.3283 34.8976C20.1156 35.223 20.0023 35.6033 20.0023 35.992C20.0023 36.3807 20.1156 36.761 20.3283 37.0864C20.541 37.4117 20.8439 37.6681 21.2 37.824L38.34 45.64C38.8611 45.8777 39.4272 46.0007 40 46.0007C40.5728 46.0007 41.1389 45.8777 41.66 45.64L58.84 37.844Z" stroke="#FDB022" stroke-width="3" stroke-linecap="round" stroke-linejoin="round"/>
<path d="M60 36V48" stroke="#FDB022" stroke-width="3" stroke-linecap="round" stroke-linejoin="round"/>
<path d="M28 41V48C28 49.5913 29.2643 51.1174 31.5147 52.2426C33.7652 53.3679 36.8174 54 40 54C43.1826 54 46.2348 53.3679 48.4853 52.2426C50.7357 51.1174 52 49.5913 52 48V41" stroke="#FDB022" stroke-width="3" stroke-linecap="round" stroke-linejoin="round"/>
</svg>
