<svg width="80" height="80" viewBox="0 0 80 80" fill="none" xmlns="http://www.w3.org/2000/svg">
<rect width="80" height="80" rx="16" fill="#DCFAE6"/>
<path fill-rule="evenodd" clip-rule="evenodd" d="M40 18C41.1046 18 42 18.8954 42 20V22.091C45.1004 22.3752 47.9392 23.3145 50.1604 24.7503C52.8312 26.477 54.8334 29.0995 54.8334 32.2963C54.8334 33.4009 53.938 34.2963 52.8334 34.2963C51.7288 34.2963 50.8334 33.4009 50.8334 32.2963C50.8334 30.9112 49.9626 29.3855 47.9888 28.1095C46.452 27.116 44.3798 26.3802 42 26.1115V37.4452C45.864 37.5978 49.0944 38.2266 51.4922 39.5968C52.9332 40.4202 54.0916 41.5216 54.8754 42.94C55.655 44.3504 56 45.958 56 47.7038C56 51.5526 53.8842 54.237 50.831 55.844C48.3808 57.1334 45.2868 57.7704 42 57.9474V60C42 61.1046 41.1046 62 40 62C38.8954 62 38 61.1046 38 60V57.9226C34.6092 57.658 31.5037 56.7264 29.0809 55.2906C26.2325 53.6028 24 50.9856 24 47.7038C24 46.5992 24.8954 45.7038 26 45.7038C27.1046 45.7038 28 46.5992 28 47.7038C28 49.0038 28.9015 50.5348 31.1201 51.8494C32.8784 52.8914 35.2641 53.6542 38 53.9082V41.367C34.1983 41.2068 31.2161 40.561 29.0668 39.2924C27.7712 38.5278 26.7653 37.5288 26.0979 36.2876C25.4354 35.0555 25.1667 33.6974 25.1667 32.2963C25.1667 29.0995 27.1687 26.477 29.8397 24.7503C32.0608 23.3145 34.8995 22.3752 38 22.091V20C38 18.8954 38.8954 18 40 18ZM38 26.1115C35.6202 26.3802 33.5481 27.116 32.0113 28.1095C30.0375 29.3855 29.1667 30.9112 29.1667 32.2963C29.1667 33.1861 29.3355 33.8625 29.6209 34.3932C29.9013 34.9149 30.3538 35.4073 31.0999 35.8477C32.4262 36.6306 34.6048 37.2036 38 37.3628V26.1115ZM42 41.449V53.9408C44.8382 53.7676 47.2366 53.2154 48.968 52.3042C50.9818 51.2444 52 49.7808 52 47.7038C52 46.4866 51.7618 45.5754 51.3746 44.8748C50.9918 44.1822 50.4002 43.5798 49.5078 43.0698C47.9278 42.167 45.4894 41.6012 42 41.449Z" fill="#17B26A"/>
</svg>
