<svg width="632" height="260" viewBox="0 0 632 260" fill="none" xmlns="http://www.w3.org/2000/svg">
<path d="M5.74657 15.127C4.08348 15.127 2.82664 14.0986 2.76317 12.6895H3.86766C3.95653 13.5146 4.75633 14.124 5.74657 14.124C6.93993 14.124 7.80321 13.248 7.80321 12.0928C7.80321 10.8994 6.90184 10.0234 5.67039 10.0107C4.89598 9.99805 4.2993 10.2393 3.95653 10.8359H2.85204L3.4995 5.80859H8.47606V6.82422H4.45164L4.10887 9.51562H4.19774C4.60399 9.19824 5.22606 8.98242 5.87352 8.98242C7.62547 8.98242 8.92039 10.2773 8.92039 12.0674C8.92039 13.8447 7.57469 15.127 5.74657 15.127ZM13.5161 15.127C11.4722 15.127 10.3042 13.4131 10.3042 10.4043C10.3042 7.4209 11.4975 5.68164 13.5161 5.68164C15.5347 5.68164 16.728 7.4209 16.728 10.4043C16.728 13.4131 15.5473 15.127 13.5161 15.127ZM13.5161 14.1113C14.8364 14.1113 15.6108 12.7783 15.6108 10.4043C15.6108 8.03027 14.8364 6.67188 13.5161 6.67188C12.1958 6.67188 11.4087 8.03027 11.4087 10.4043C11.4087 12.7783 12.1831 14.1113 13.5161 14.1113ZM21.2602 15.127C19.2163 15.127 18.0483 13.4131 18.0483 10.4043C18.0483 7.4209 19.2417 5.68164 21.2602 5.68164C23.2788 5.68164 24.4722 7.4209 24.4722 10.4043C24.4722 13.4131 23.2915 15.127 21.2602 15.127ZM21.2602 14.1113C22.5806 14.1113 23.355 12.7783 23.355 10.4043C23.355 8.03027 22.5806 6.67188 21.2602 6.67188C19.9399 6.67188 19.1528 8.03027 19.1528 10.4043C19.1528 12.7783 19.9272 14.1113 21.2602 14.1113ZM26.0083 15V5.80859H27.1001V11.1533H27.227L30.2104 8.10645H31.5561L28.6489 11.0518L31.772 15H30.3882L27.8364 11.75L27.1001 12.4229V15H26.0083Z" fill="#081E37"/>
<line x1="39.8481" y1="9.62086" x2="631.848" y2="9.62086" stroke="#A4A7AE" stroke-width="0.758289" stroke-dasharray="3.03 3.03"/>
<path d="M8.05711 53.8086V63H6.90184V55.002H6.85106L4.61668 56.4873V55.332L6.90184 53.8086H8.05711ZM13.5161 63.127C11.4722 63.127 10.3042 61.4131 10.3042 58.4043C10.3042 55.4209 11.4975 53.6816 13.5161 53.6816C15.5347 53.6816 16.728 55.4209 16.728 58.4043C16.728 61.4131 15.5473 63.127 13.5161 63.127ZM13.5161 62.1113C14.8364 62.1113 15.6108 60.7783 15.6108 58.4043C15.6108 56.0303 14.8364 54.6719 13.5161 54.6719C12.1958 54.6719 11.4087 56.0303 11.4087 58.4043C11.4087 60.7783 12.1831 62.1113 13.5161 62.1113ZM21.2602 63.127C19.2163 63.127 18.0483 61.4131 18.0483 58.4043C18.0483 55.4209 19.2417 53.6816 21.2602 53.6816C23.2788 53.6816 24.4722 55.4209 24.4722 58.4043C24.4722 61.4131 23.2915 63.127 21.2602 63.127ZM21.2602 62.1113C22.5806 62.1113 23.355 60.7783 23.355 58.4043C23.355 56.0303 22.5806 54.6719 21.2602 54.6719C19.9399 54.6719 19.1528 56.0303 19.1528 58.4043C19.1528 60.7783 19.9272 62.1113 21.2602 62.1113ZM26.0083 63V53.8086H27.1001V59.1533H27.227L30.2104 56.1064H31.5561L28.6489 59.0518L31.772 63H30.3882L27.8364 59.75L27.1001 60.4229V63H26.0083Z" fill="#081E37"/>
<line x1="39.8481" y1="57.6209" x2="631.848" y2="57.6209" stroke="#A4A7AE" stroke-width="0.758289" stroke-dasharray="3.03 3.03"/>
<path d="M13.4907 111.127C11.8276 111.127 10.5708 110.099 10.5073 108.689H11.6118C11.7007 109.515 12.5005 110.124 13.4907 110.124C14.6841 110.124 15.5473 109.248 15.5473 108.093C15.5473 106.899 14.646 106.023 13.4145 106.011C12.6401 105.998 12.0434 106.239 11.7007 106.836H10.5962L11.2436 101.809H16.2202V102.824H12.1958L11.853 105.516H11.9419C12.3481 105.198 12.9702 104.982 13.6177 104.982C15.3696 104.982 16.6645 106.277 16.6645 108.067C16.6645 109.845 15.3188 111.127 13.4907 111.127ZM21.2602 111.127C19.2163 111.127 18.0483 109.413 18.0483 106.404C18.0483 103.421 19.2417 101.682 21.2602 101.682C23.2788 101.682 24.4722 103.421 24.4722 106.404C24.4722 109.413 23.2915 111.127 21.2602 111.127ZM21.2602 110.111C22.5806 110.111 23.355 108.778 23.355 106.404C23.355 104.03 22.5806 102.672 21.2602 102.672C19.9399 102.672 19.1528 104.03 19.1528 106.404C19.1528 108.778 19.9272 110.111 21.2602 110.111ZM26.0083 111V101.809H27.1001V107.153H27.227L30.2104 104.106H31.5561L28.6489 107.052L31.772 111H30.3882L27.8364 107.75L27.1001 108.423V111H26.0083Z" fill="#081E37"/>
<line x1="39.8481" y1="105.621" x2="631.848" y2="105.621" stroke="#A4A7AE" stroke-width="0.758289" stroke-dasharray="3.03 3.03"/>
<path d="M10.6216 159L10.6089 158.162L13.7446 154.861C14.8364 153.706 15.3569 153.084 15.3569 152.233C15.3569 151.294 14.5571 150.672 13.5288 150.672C12.437 150.672 11.7388 151.37 11.7388 152.398H10.6597C10.647 150.773 11.9038 149.682 13.5669 149.682C15.23 149.682 16.4233 150.799 16.4233 152.233C16.4233 153.262 15.9409 154.062 14.3159 155.737L12.2085 157.908V157.984H16.5884V159H10.6216ZM21.2602 159.127C19.2163 159.127 18.0483 157.413 18.0483 154.404C18.0483 151.421 19.2417 149.682 21.2602 149.682C23.2788 149.682 24.4722 151.421 24.4722 154.404C24.4722 157.413 23.2915 159.127 21.2602 159.127ZM21.2602 158.111C22.5806 158.111 23.355 156.778 23.355 154.404C23.355 152.03 22.5806 150.672 21.2602 150.672C19.9399 150.672 19.1528 152.03 19.1528 154.404C19.1528 156.778 19.9272 158.111 21.2602 158.111ZM26.0083 159V149.809H27.1001V155.153H27.227L30.2104 152.106H31.5561L28.6489 155.052L31.772 159H30.3882L27.8364 155.75L27.1001 156.423V159H26.0083Z" fill="#081E37"/>
<line x1="39.8481" y1="153.621" x2="631.848" y2="153.621" stroke="#A4A7AE" stroke-width="0.758289" stroke-dasharray="3.03 3.03"/>
<path d="M15.8013 197.809V207H14.646V199.002H14.5952L12.3608 200.487V199.332L14.646 197.809H15.8013ZM21.2602 207.127C19.2163 207.127 18.0483 205.413 18.0483 202.404C18.0483 199.421 19.2417 197.682 21.2602 197.682C23.2788 197.682 24.4722 199.421 24.4722 202.404C24.4722 205.413 23.2915 207.127 21.2602 207.127ZM21.2602 206.111C22.5806 206.111 23.355 204.778 23.355 202.404C23.355 200.03 22.5806 198.672 21.2602 198.672C19.9399 198.672 19.1528 200.03 19.1528 202.404C19.1528 204.778 19.9272 206.111 21.2602 206.111ZM26.0083 207V197.809H27.1001V203.153H27.227L30.2104 200.106H31.5561L28.6489 203.052L31.772 207H30.3882L27.8364 203.75L27.1001 204.423V207H26.0083Z" fill="#081E37"/>
<line x1="39.8481" y1="201.621" x2="631.848" y2="201.621" stroke="#A4A7AE" stroke-width="0.758289" stroke-dasharray="3.03 3.03"/>
<path d="M21.2348 255.127C19.5718 255.127 18.3149 254.099 18.2514 252.689H19.3559C19.4448 253.515 20.2446 254.124 21.2348 254.124C22.4282 254.124 23.2915 253.248 23.2915 252.093C23.2915 250.899 22.3901 250.023 21.1587 250.011C20.3843 249.998 19.7876 250.239 19.4448 250.836H18.3403L18.9878 245.809H23.9643V246.824H19.9399L19.5972 249.516H19.686C20.0923 249.198 20.7143 248.982 21.3618 248.982C23.1138 248.982 24.4087 250.277 24.4087 252.067C24.4087 253.845 23.063 255.127 21.2348 255.127ZM26.0083 255V245.809H27.1001V251.153H27.227L30.2104 248.106H31.5561L28.6489 251.052L31.772 255H30.3882L27.8364 251.75L27.1001 252.423V255H26.0083Z" fill="#081E37"/>
<line x1="39.8481" y1="249.621" x2="631.848" y2="249.621" stroke="#A4A7AE" stroke-width="0.758289" stroke-dasharray="3.03 3.03"/>
</svg>
