<svg width="21" height="21" viewBox="0 0 21 21" fill="none" xmlns="http://www.w3.org/2000/svg">
<path d="M10.2671 2.48578C7.43984 2.48578 5.14213 4.78349 5.14213 7.61078V10.0793C5.14213 10.6004 4.92004 11.3947 4.65525 11.8389L3.67296 13.4704C3.0665 14.4783 3.48504 15.5972 4.59546 15.9731C8.27692 17.2031 12.2488 17.2031 15.9303 15.9731C16.9638 15.6314 17.4165 14.4099 16.8528 13.4704L15.8705 11.8389C15.6142 11.3947 15.3921 10.6004 15.3921 10.0793V7.61078C15.3921 4.79203 13.0859 2.48578 10.2671 2.48578Z" stroke="#081E37" stroke-width="1.28125" stroke-miterlimit="10" stroke-linecap="round"/>
<rect x="11.957" y="2.13544" width="6.83333" height="6.83333" rx="3.41667" fill="#E31E27"/>
<path d="M11.8479 2.73335C11.5831 2.65648 11.3098 2.59669 11.0279 2.56252C10.2079 2.46002 9.42208 2.51981 8.6875 2.73335C8.93521 2.10127 9.55021 1.6571 10.2677 1.6571C10.9852 1.6571 11.6002 2.10127 11.8479 2.73335Z" stroke="#081E37" stroke-width="1.28125" stroke-miterlimit="10" stroke-linecap="round" stroke-linejoin="round"/>
<path d="M12.8281 16.2805C12.8281 17.6898 11.675 18.843 10.2656 18.843C9.56521 18.843 8.91604 18.5525 8.45479 18.0913C7.99354 17.63 7.70312 16.9809 7.70312 16.2805" stroke="#081E37" stroke-width="1.28125" stroke-miterlimit="10"/>
</svg>
